G04 #@! TF.GenerationSoftware,KiCad,Pcbnew,(5.1.2)-2*
G04 #@! TF.CreationDate,2020-01-23T10:25:16+01:00*
G04 #@! TF.ProjectId,JoeyJoebags,4a6f6579-4a6f-4656-9261-67732e6b6963,rev?*
G04 #@! TF.SameCoordinates,Original*
G04 #@! TF.FileFunction,Legend,Top*
G04 #@! TF.FilePolarity,Positive*
%FSLAX46Y46*%
G04 Gerber Fmt 4.6, Leading zero omitted, Abs format (unit mm)*
G04 Created by KiCad (PCBNEW (5.1.2)-2) date 2020-01-23 10:25:16*
%MOMM*%
%LPD*%
G04 APERTURE LIST*
%ADD10C,0.120000*%
%ADD11C,0.150000*%
G04 APERTURE END LIST*
D10*
X191347000Y-105558000D02*
X191347000Y-90318000D01*
X140427000Y-90318000D02*
X140427000Y-108218000D01*
X191347000Y-90318000D02*
X140427000Y-90318000D01*
X140427000Y-108218000D02*
X188747000Y-108218000D01*
X191347000Y-105558000D02*
X140427000Y-105558000D01*
X140427000Y-92978000D02*
X191347000Y-92978000D01*
X188747000Y-108218000D02*
X188747000Y-105558000D01*
X191347000Y-106888000D02*
X191347000Y-108218000D01*
X191347000Y-108218000D02*
X190017000Y-108218000D01*
X175094335Y-82105092D02*
G75*
G03X171862000Y-81948184I-1672335J-1078608D01*
G01*
X175094335Y-84262308D02*
G75*
G02X171862000Y-84419216I-1672335J1078608D01*
G01*
X174463130Y-82103863D02*
G75*
G03X172381039Y-82103700I-1041130J-1079837D01*
G01*
X174463130Y-84263537D02*
G75*
G02X172381039Y-84263700I-1041130J1079837D01*
G01*
X171862000Y-81947700D02*
X171862000Y-82103700D01*
X171862000Y-84263700D02*
X171862000Y-84419700D01*
X151862000Y-84263700D02*
X151862000Y-84419700D01*
X151862000Y-81947700D02*
X151862000Y-82103700D01*
X154463130Y-84263537D02*
G75*
G02X152381039Y-84263700I-1041130J1079837D01*
G01*
X154463130Y-82103863D02*
G75*
G03X152381039Y-82103700I-1041130J-1079837D01*
G01*
X155094335Y-84262308D02*
G75*
G02X151862000Y-84419216I-1672335J1078608D01*
G01*
X155094335Y-82105092D02*
G75*
G03X151862000Y-81948184I-1672335J-1078608D01*
G01*
X183152000Y-79063700D02*
X183152000Y-79833700D01*
X183152000Y-87143700D02*
X183152000Y-86373700D01*
X181782000Y-79833700D02*
X181782000Y-86373700D01*
X184522000Y-79833700D02*
X181782000Y-79833700D01*
X184522000Y-86373700D02*
X184522000Y-79833700D01*
X181782000Y-86373700D02*
X184522000Y-86373700D01*
X161782000Y-86373700D02*
X164522000Y-86373700D01*
X164522000Y-86373700D02*
X164522000Y-79833700D01*
X164522000Y-79833700D02*
X161782000Y-79833700D01*
X161782000Y-79833700D02*
X161782000Y-86373700D01*
X163152000Y-87143700D02*
X163152000Y-86373700D01*
X163152000Y-79063700D02*
X163152000Y-79833700D01*
D11*
X162077476Y-99722400D02*
X162077476Y-98722400D01*
X162410809Y-99436686D01*
X162744142Y-98722400D01*
X162744142Y-99722400D01*
X163648904Y-99722400D02*
X163648904Y-99198591D01*
X163601285Y-99103353D01*
X163506047Y-99055734D01*
X163315571Y-99055734D01*
X163220333Y-99103353D01*
X163648904Y-99674781D02*
X163553666Y-99722400D01*
X163315571Y-99722400D01*
X163220333Y-99674781D01*
X163172714Y-99579543D01*
X163172714Y-99484305D01*
X163220333Y-99389067D01*
X163315571Y-99341448D01*
X163553666Y-99341448D01*
X163648904Y-99293829D01*
X164125095Y-99055734D02*
X164125095Y-100055734D01*
X164125095Y-99103353D02*
X164220333Y-99055734D01*
X164410809Y-99055734D01*
X164506047Y-99103353D01*
X164553666Y-99150972D01*
X164601285Y-99246210D01*
X164601285Y-99531924D01*
X164553666Y-99627162D01*
X164506047Y-99674781D01*
X164410809Y-99722400D01*
X164220333Y-99722400D01*
X164125095Y-99674781D01*
X165172714Y-99722400D02*
X165077476Y-99674781D01*
X165029857Y-99579543D01*
X165029857Y-98722400D01*
X165934619Y-99674781D02*
X165839380Y-99722400D01*
X165648904Y-99722400D01*
X165553666Y-99674781D01*
X165506047Y-99579543D01*
X165506047Y-99198591D01*
X165553666Y-99103353D01*
X165648904Y-99055734D01*
X165839380Y-99055734D01*
X165934619Y-99103353D01*
X165982238Y-99198591D01*
X165982238Y-99293829D01*
X165506047Y-99389067D01*
X167172714Y-99722400D02*
X167172714Y-98722400D01*
X167506047Y-99436686D01*
X167839380Y-98722400D01*
X167839380Y-99722400D01*
X168315571Y-99722400D02*
X168315571Y-99055734D01*
X168315571Y-98722400D02*
X168267952Y-98770020D01*
X168315571Y-98817639D01*
X168363190Y-98770020D01*
X168315571Y-98722400D01*
X168315571Y-98817639D01*
X168791761Y-99055734D02*
X168791761Y-99722400D01*
X168791761Y-99150972D02*
X168839380Y-99103353D01*
X168934619Y-99055734D01*
X169077476Y-99055734D01*
X169172714Y-99103353D01*
X169220333Y-99198591D01*
X169220333Y-99722400D01*
X169696523Y-99722400D02*
X169696523Y-99055734D01*
X169696523Y-98722400D02*
X169648904Y-98770020D01*
X169696523Y-98817639D01*
X169744142Y-98770020D01*
X169696523Y-98722400D01*
X169696523Y-98817639D01*
X162544666Y-69971942D02*
X162497047Y-70019561D01*
X162354190Y-70067180D01*
X162258952Y-70067180D01*
X162116095Y-70019561D01*
X162020857Y-69924323D01*
X161973238Y-69829085D01*
X161925619Y-69638609D01*
X161925619Y-69495752D01*
X161973238Y-69305276D01*
X162020857Y-69210038D01*
X162116095Y-69114800D01*
X162258952Y-69067180D01*
X162354190Y-69067180D01*
X162497047Y-69114800D01*
X162544666Y-69162419D01*
X163401809Y-70067180D02*
X163401809Y-69543371D01*
X163354190Y-69448133D01*
X163258952Y-69400514D01*
X163068476Y-69400514D01*
X162973238Y-69448133D01*
X163401809Y-70019561D02*
X163306571Y-70067180D01*
X163068476Y-70067180D01*
X162973238Y-70019561D01*
X162925619Y-69924323D01*
X162925619Y-69829085D01*
X162973238Y-69733847D01*
X163068476Y-69686228D01*
X163306571Y-69686228D01*
X163401809Y-69638609D01*
X163878000Y-70067180D02*
X163878000Y-69400514D01*
X163878000Y-69590990D02*
X163925619Y-69495752D01*
X163973238Y-69448133D01*
X164068476Y-69400514D01*
X164163714Y-69400514D01*
X164354190Y-69400514D02*
X164735142Y-69400514D01*
X164497047Y-69067180D02*
X164497047Y-69924323D01*
X164544666Y-70019561D01*
X164639904Y-70067180D01*
X164735142Y-70067180D01*
X165068476Y-70067180D02*
X165068476Y-69067180D01*
X165068476Y-69543371D02*
X165639904Y-69543371D01*
X165639904Y-70067180D02*
X165639904Y-69067180D01*
X166497047Y-70019561D02*
X166401809Y-70067180D01*
X166211333Y-70067180D01*
X166116095Y-70019561D01*
X166068476Y-69924323D01*
X166068476Y-69543371D01*
X166116095Y-69448133D01*
X166211333Y-69400514D01*
X166401809Y-69400514D01*
X166497047Y-69448133D01*
X166544666Y-69543371D01*
X166544666Y-69638609D01*
X166068476Y-69733847D01*
X167401809Y-70067180D02*
X167401809Y-69543371D01*
X167354190Y-69448133D01*
X167258952Y-69400514D01*
X167068476Y-69400514D01*
X166973238Y-69448133D01*
X167401809Y-70019561D02*
X167306571Y-70067180D01*
X167068476Y-70067180D01*
X166973238Y-70019561D01*
X166925619Y-69924323D01*
X166925619Y-69829085D01*
X166973238Y-69733847D01*
X167068476Y-69686228D01*
X167306571Y-69686228D01*
X167401809Y-69638609D01*
X168306571Y-70067180D02*
X168306571Y-69067180D01*
X168306571Y-70019561D02*
X168211333Y-70067180D01*
X168020857Y-70067180D01*
X167925619Y-70019561D01*
X167878000Y-69971942D01*
X167830380Y-69876704D01*
X167830380Y-69590990D01*
X167878000Y-69495752D01*
X167925619Y-69448133D01*
X168020857Y-69400514D01*
X168211333Y-69400514D01*
X168306571Y-69448133D01*
X169163714Y-70019561D02*
X169068476Y-70067180D01*
X168878000Y-70067180D01*
X168782761Y-70019561D01*
X168735142Y-69924323D01*
X168735142Y-69543371D01*
X168782761Y-69448133D01*
X168878000Y-69400514D01*
X169068476Y-69400514D01*
X169163714Y-69448133D01*
X169211333Y-69543371D01*
X169211333Y-69638609D01*
X168735142Y-69733847D01*
X169639904Y-70067180D02*
X169639904Y-69400514D01*
X169639904Y-69590990D02*
X169687523Y-69495752D01*
X169735142Y-69448133D01*
X169830380Y-69400514D01*
X169925619Y-69400514D01*
X172302952Y-80676080D02*
X171826761Y-80676080D01*
X171826761Y-79676080D01*
X172636285Y-80152271D02*
X172969619Y-80152271D01*
X173112476Y-80676080D02*
X172636285Y-80676080D01*
X172636285Y-79676080D01*
X173112476Y-79676080D01*
X173541047Y-80676080D02*
X173541047Y-79676080D01*
X173779142Y-79676080D01*
X173922000Y-79723700D01*
X174017238Y-79818938D01*
X174064857Y-79914176D01*
X174112476Y-80104652D01*
X174112476Y-80247509D01*
X174064857Y-80437985D01*
X174017238Y-80533223D01*
X173922000Y-80628461D01*
X173779142Y-80676080D01*
X173541047Y-80676080D01*
X175064857Y-80676080D02*
X174493428Y-80676080D01*
X174779142Y-80676080D02*
X174779142Y-79676080D01*
X174683904Y-79818938D01*
X174588666Y-79914176D01*
X174493428Y-79961795D01*
X152302952Y-80676080D02*
X151826761Y-80676080D01*
X151826761Y-79676080D01*
X152636285Y-80152271D02*
X152969619Y-80152271D01*
X153112476Y-80676080D02*
X152636285Y-80676080D01*
X152636285Y-79676080D01*
X153112476Y-79676080D01*
X153541047Y-80676080D02*
X153541047Y-79676080D01*
X153779142Y-79676080D01*
X153922000Y-79723700D01*
X154017238Y-79818938D01*
X154064857Y-79914176D01*
X154112476Y-80104652D01*
X154112476Y-80247509D01*
X154064857Y-80437985D01*
X154017238Y-80533223D01*
X153922000Y-80628461D01*
X153779142Y-80676080D01*
X153541047Y-80676080D01*
X154493428Y-79771319D02*
X154541047Y-79723700D01*
X154636285Y-79676080D01*
X154874380Y-79676080D01*
X154969619Y-79723700D01*
X155017238Y-79771319D01*
X155064857Y-79866557D01*
X155064857Y-79961795D01*
X155017238Y-80104652D01*
X154445809Y-80676080D01*
X155064857Y-80676080D01*
X181234380Y-83270366D02*
X180758190Y-83603700D01*
X181234380Y-83841795D02*
X180234380Y-83841795D01*
X180234380Y-83460842D01*
X180282000Y-83365604D01*
X180329619Y-83317985D01*
X180424857Y-83270366D01*
X180567714Y-83270366D01*
X180662952Y-83317985D01*
X180710571Y-83365604D01*
X180758190Y-83460842D01*
X180758190Y-83841795D01*
X181234380Y-82317985D02*
X181234380Y-82889414D01*
X181234380Y-82603700D02*
X180234380Y-82603700D01*
X180377238Y-82698938D01*
X180472476Y-82794176D01*
X180520095Y-82889414D01*
X161234380Y-83270366D02*
X160758190Y-83603700D01*
X161234380Y-83841795D02*
X160234380Y-83841795D01*
X160234380Y-83460842D01*
X160282000Y-83365604D01*
X160329619Y-83317985D01*
X160424857Y-83270366D01*
X160567714Y-83270366D01*
X160662952Y-83317985D01*
X160710571Y-83365604D01*
X160758190Y-83460842D01*
X160758190Y-83841795D01*
X160329619Y-82889414D02*
X160282000Y-82841795D01*
X160234380Y-82746557D01*
X160234380Y-82508461D01*
X160282000Y-82413223D01*
X160329619Y-82365604D01*
X160424857Y-82317985D01*
X160520095Y-82317985D01*
X160662952Y-82365604D01*
X161234380Y-82937033D01*
X161234380Y-82317985D01*
M02*
