G04 #@! TF.GenerationSoftware,KiCad,Pcbnew,(5.1.2)-2*
G04 #@! TF.CreationDate,2020-01-23T10:25:16+01:00*
G04 #@! TF.ProjectId,JoeyJoebags,4a6f6579-4a6f-4656-9261-67732e6b6963,rev?*
G04 #@! TF.SameCoordinates,Original*
G04 #@! TF.FileFunction,Copper,L1,Top*
G04 #@! TF.FilePolarity,Positive*
%FSLAX46Y46*%
G04 Gerber Fmt 4.6, Leading zero omitted, Abs format (unit mm)*
G04 Created by KiCad (PCBNEW (5.1.2)-2) date 2020-01-23 10:25:16*
%MOMM*%
%LPD*%
G04 APERTURE LIST*
%ADD10R,1.524000X1.524000*%
%ADD11C,1.524000*%
%ADD12R,1.000000X2.500000*%
%ADD13R,1.800000X1.800000*%
%ADD14C,1.800000*%
%ADD15O,1.600000X1.600000*%
%ADD16C,1.600000*%
%ADD17C,0.800000*%
%ADD18C,0.250000*%
G04 APERTURE END LIST*
D10*
X190017000Y-106888000D03*
D11*
X187477000Y-106888000D03*
X184937000Y-106888000D03*
X182397000Y-106888000D03*
X179857000Y-106888000D03*
X177317000Y-106888000D03*
X174777000Y-106888000D03*
X172237000Y-106888000D03*
X169697000Y-106888000D03*
X167157000Y-106888000D03*
X164617000Y-106888000D03*
X162077000Y-106888000D03*
X159537000Y-106888000D03*
X156997000Y-106888000D03*
X154457000Y-106888000D03*
X151917000Y-106888000D03*
X149377000Y-106888000D03*
X146837000Y-106888000D03*
X144297000Y-106888000D03*
X141757000Y-106888000D03*
X141757000Y-91648000D03*
X144297000Y-91648000D03*
X146837000Y-91648000D03*
X149377000Y-91648000D03*
X151917000Y-91648000D03*
X154457000Y-91648000D03*
X156997000Y-91648000D03*
X159537000Y-91648000D03*
X162077000Y-91648000D03*
X164617000Y-91648000D03*
X167157000Y-91648000D03*
X169697000Y-91648000D03*
X172237000Y-91648000D03*
X174777000Y-91648000D03*
X177317000Y-91648000D03*
X179857000Y-91648000D03*
X182397000Y-91648000D03*
X184937000Y-91648000D03*
X187477000Y-91648000D03*
X190017000Y-91648000D03*
D12*
X189128000Y-73637600D03*
X187628000Y-73637600D03*
X186128000Y-73637600D03*
X184628000Y-73637600D03*
X183128000Y-73637600D03*
X181628000Y-73637600D03*
X180128000Y-73637600D03*
X178628000Y-73637600D03*
X177128000Y-73637600D03*
X175628000Y-73637600D03*
X174128000Y-73637600D03*
X172628000Y-73637600D03*
X171128000Y-73637600D03*
X169628000Y-73637600D03*
X168128000Y-73637600D03*
X166628000Y-73637600D03*
X165128000Y-73637600D03*
X162128000Y-73637600D03*
X160628000Y-73637600D03*
X159128000Y-73637600D03*
X157628000Y-73637600D03*
X156128000Y-73637600D03*
X154628000Y-73637600D03*
X153128000Y-73637600D03*
X151628000Y-73637600D03*
X150128000Y-73637600D03*
X148628000Y-73637600D03*
X147128000Y-73637600D03*
X145628000Y-73637600D03*
X144128000Y-73637600D03*
X163628000Y-73637600D03*
X142628000Y-73637600D03*
D13*
X172152000Y-83183700D03*
D14*
X174692000Y-83183700D03*
X154692000Y-83183700D03*
D13*
X152152000Y-83183700D03*
D15*
X183152000Y-78023700D03*
D16*
X183152000Y-88183700D03*
X163152000Y-88183700D03*
D15*
X163152000Y-78023700D03*
D17*
X168457200Y-79999100D03*
X165805800Y-80495200D03*
X160183200Y-93041500D03*
X159629400Y-81919800D03*
X184277300Y-90123100D03*
X182095600Y-93910900D03*
X167933400Y-78253900D03*
X188497100Y-76488400D03*
X157204600Y-90215400D03*
X155945400Y-88083400D03*
X155357400Y-86658600D03*
X154137300Y-80886500D03*
X155137700Y-80618900D03*
X151786000Y-81194500D03*
D18*
X189128000Y-73637600D02*
X189128000Y-75212900D01*
X189128000Y-75212900D02*
X190269000Y-76353900D01*
X190269000Y-76353900D02*
X190269000Y-87783500D01*
X190269000Y-87783500D02*
X188747000Y-89305500D01*
X188747000Y-89305500D02*
X188747000Y-105618000D01*
X188747000Y-105618000D02*
X187477000Y-106888000D01*
X180128000Y-73637600D02*
X180128000Y-87934400D01*
X180128000Y-87934400D02*
X180970300Y-88776700D01*
X180970300Y-88776700D02*
X180970300Y-102921300D01*
X180970300Y-102921300D02*
X184937000Y-106888000D01*
X166628000Y-73637600D02*
X166628000Y-75212900D01*
X168457200Y-79999100D02*
X166628100Y-78170000D01*
X166628100Y-78170000D02*
X166628100Y-75212900D01*
X166628100Y-75212900D02*
X166628000Y-75212900D01*
X165128000Y-73637600D02*
X165128000Y-79817400D01*
X165128000Y-79817400D02*
X165805800Y-80495200D01*
X163628000Y-75212900D02*
X160649400Y-78191500D01*
X160649400Y-78191500D02*
X160649400Y-92575300D01*
X160649400Y-92575300D02*
X160183200Y-93041500D01*
X163628000Y-73637600D02*
X163628000Y-75212900D01*
X159629400Y-81919800D02*
X159629400Y-77711500D01*
X159629400Y-77711500D02*
X162128000Y-75212900D01*
X162128000Y-73637600D02*
X162128000Y-75212900D01*
X178628000Y-73637600D02*
X178628000Y-100497000D01*
X178628000Y-100497000D02*
X172237000Y-106888000D01*
X184628000Y-73637600D02*
X184628000Y-75212900D01*
X184628000Y-75212900D02*
X186024700Y-76609600D01*
X186024700Y-76609600D02*
X186024700Y-107343300D01*
X186024700Y-107343300D02*
X185376200Y-107991800D01*
X185376200Y-107991800D02*
X170800800Y-107991800D01*
X170800800Y-107991800D02*
X169697000Y-106888000D01*
X183128000Y-75212900D02*
X184277300Y-76362200D01*
X184277300Y-76362200D02*
X184277300Y-90123100D01*
X183128000Y-73637600D02*
X183128000Y-75212900D01*
X181628000Y-73637600D02*
X181628000Y-75212900D01*
X181628000Y-75212900D02*
X181628000Y-88797500D01*
X181628000Y-88797500D02*
X183514300Y-90683800D01*
X183514300Y-90683800D02*
X183514300Y-92492200D01*
X183514300Y-92492200D02*
X182095600Y-93910900D01*
X177128000Y-73637600D02*
X177128000Y-82480700D01*
X177128000Y-82480700D02*
X176047000Y-83561700D01*
X176047000Y-83561700D02*
X176047000Y-91921900D01*
X176047000Y-91921900D02*
X162906900Y-105062000D01*
X162906900Y-105062000D02*
X158823000Y-105062000D01*
X158823000Y-105062000D02*
X156997000Y-106888000D01*
X175628000Y-73637600D02*
X175628000Y-78956700D01*
X175628000Y-78956700D02*
X173377700Y-81207000D01*
X173377700Y-81207000D02*
X173377700Y-92062100D01*
X173377700Y-92062100D02*
X167242500Y-98197300D01*
X167242500Y-98197300D02*
X163147700Y-98197300D01*
X163147700Y-98197300D02*
X154457000Y-106888000D01*
X174128000Y-73637600D02*
X174128000Y-78712300D01*
X174128000Y-78712300D02*
X170886500Y-81953800D01*
X170886500Y-81953800D02*
X170886500Y-91998800D01*
X170886500Y-91998800D02*
X165192900Y-97692400D01*
X165192900Y-97692400D02*
X162085500Y-97692400D01*
X162085500Y-97692400D02*
X152889900Y-106888000D01*
X152889900Y-106888000D02*
X151917000Y-106888000D01*
X149377000Y-106888000D02*
X151505400Y-104759600D01*
X151505400Y-104759600D02*
X154256800Y-104759600D01*
X154256800Y-104759600D02*
X165944900Y-93071500D01*
X165944900Y-93071500D02*
X167274800Y-93071500D01*
X167274800Y-93071500D02*
X168427000Y-91919300D01*
X168427000Y-91919300D02*
X168427000Y-83653300D01*
X168427000Y-83653300D02*
X172628000Y-79452300D01*
X172628000Y-79452300D02*
X172628000Y-73637600D01*
X146837000Y-106888000D02*
X156335800Y-97389200D01*
X156335800Y-97389200D02*
X160415000Y-97389200D01*
X160415000Y-97389200D02*
X165887000Y-91917200D01*
X165887000Y-91917200D02*
X165887000Y-85556400D01*
X165887000Y-85556400D02*
X171128000Y-80315400D01*
X171128000Y-80315400D02*
X171128000Y-73637600D01*
X169628000Y-73637600D02*
X169628000Y-81178500D01*
X169628000Y-81178500D02*
X165339100Y-85467400D01*
X165339100Y-85467400D02*
X165339100Y-88349100D01*
X165339100Y-88349100D02*
X163292100Y-90396100D01*
X163292100Y-90396100D02*
X163292100Y-91999000D01*
X163292100Y-91999000D02*
X159491300Y-95799800D01*
X159491300Y-95799800D02*
X155385200Y-95799800D01*
X155385200Y-95799800D02*
X144297000Y-106888000D01*
X167933400Y-78253900D02*
X167933400Y-75407500D01*
X167933400Y-75407500D02*
X168128000Y-75212900D01*
X168128000Y-73637600D02*
X168128000Y-75212900D01*
X141757000Y-91648000D02*
X142853300Y-92744300D01*
X142853300Y-92744300D02*
X144743100Y-92744300D01*
X144743100Y-92744300D02*
X145412500Y-92074900D01*
X145412500Y-92074900D02*
X145412500Y-81500000D01*
X145412500Y-81500000D02*
X142628000Y-78715500D01*
X142628000Y-78715500D02*
X142628000Y-73637600D01*
X186128000Y-73637600D02*
X186128000Y-72062300D01*
X186128000Y-72062300D02*
X141985300Y-72062300D01*
X141985300Y-72062300D02*
X141509300Y-72538300D01*
X141509300Y-72538300D02*
X141509300Y-88860300D01*
X141509300Y-88860300D02*
X144297000Y-91648000D01*
X187628000Y-73637600D02*
X187628000Y-75619300D01*
X187628000Y-75619300D02*
X188497100Y-76488400D01*
X149377000Y-91648000D02*
X149377000Y-80461900D01*
X149377000Y-80461900D02*
X144128000Y-75212900D01*
X144128000Y-73637600D02*
X144128000Y-75212900D01*
X160628000Y-73637600D02*
X160628000Y-75212900D01*
X160628000Y-75212900D02*
X158781700Y-77059200D01*
X158781700Y-77059200D02*
X158781700Y-90500200D01*
X158781700Y-90500200D02*
X158267000Y-91014900D01*
X158267000Y-91014900D02*
X158267000Y-91923200D01*
X158267000Y-91923200D02*
X157438400Y-92751800D01*
X157438400Y-92751800D02*
X155560800Y-92751800D01*
X155560800Y-92751800D02*
X154457000Y-91648000D01*
X159128000Y-75212900D02*
X158208900Y-76132000D01*
X158208900Y-76132000D02*
X158208900Y-90436100D01*
X158208900Y-90436100D02*
X156997000Y-91648000D01*
X159128000Y-73637600D02*
X159128000Y-75212900D01*
X157628000Y-75212900D02*
X157628000Y-89792000D01*
X157628000Y-89792000D02*
X157204600Y-90215400D01*
X157628000Y-73637600D02*
X157628000Y-75212900D01*
X162077000Y-91648000D02*
X162077000Y-92173700D01*
X162077000Y-92173700D02*
X160483300Y-93767400D01*
X160483300Y-93767400D02*
X154991800Y-93767400D01*
X154991800Y-93767400D02*
X153368100Y-92143700D01*
X153368100Y-92143700D02*
X153368100Y-91157200D01*
X153368100Y-91157200D02*
X154415200Y-90110100D01*
X154415200Y-90110100D02*
X154973600Y-90110100D01*
X154973600Y-90110100D02*
X156839900Y-88243800D01*
X156839900Y-88243800D02*
X156839900Y-75924800D01*
X156839900Y-75924800D02*
X156128000Y-75212900D01*
X156128000Y-73637600D02*
X156128000Y-75212900D01*
X154628000Y-73637600D02*
X154628000Y-77221400D01*
X154628000Y-77221400D02*
X156369300Y-78962700D01*
X156369300Y-78962700D02*
X156369300Y-87659500D01*
X156369300Y-87659500D02*
X155945400Y-88083400D01*
X153128000Y-73637600D02*
X153128000Y-77225300D01*
X153128000Y-77225300D02*
X155918900Y-80016200D01*
X155918900Y-80016200D02*
X155918900Y-86097100D01*
X155918900Y-86097100D02*
X155357400Y-86658600D01*
X151628000Y-75212900D02*
X151628000Y-77744800D01*
X151628000Y-77744800D02*
X154137300Y-80254100D01*
X154137300Y-80254100D02*
X154137300Y-80886500D01*
X151628000Y-73637600D02*
X151628000Y-75212900D01*
X155137700Y-80618900D02*
X155137700Y-80911900D01*
X155137700Y-80911900D02*
X154437800Y-81611800D01*
X154437800Y-81611800D02*
X153834700Y-81611800D01*
X153834700Y-81611800D02*
X153411900Y-81189000D01*
X153411900Y-81189000D02*
X153411900Y-80373400D01*
X153411900Y-80373400D02*
X150128000Y-77089500D01*
X150128000Y-77089500D02*
X150128000Y-75212900D01*
X150128000Y-73637600D02*
X150128000Y-75212900D01*
X177317000Y-91648000D02*
X163164400Y-105800600D01*
X163164400Y-105800600D02*
X159062300Y-105800600D01*
X159062300Y-105800600D02*
X158267000Y-106595900D01*
X158267000Y-106595900D02*
X158267000Y-107164200D01*
X158267000Y-107164200D02*
X157413700Y-108017500D01*
X157413700Y-108017500D02*
X143881500Y-108017500D01*
X143881500Y-108017500D02*
X143188300Y-107324300D01*
X143188300Y-107324300D02*
X143188300Y-104316200D01*
X143188300Y-104316200D02*
X150647000Y-96857500D01*
X150647000Y-96857500D02*
X150647000Y-91193800D01*
X150647000Y-91193800D02*
X153377400Y-88463400D01*
X153377400Y-88463400D02*
X153377400Y-82148100D01*
X153377400Y-82148100D02*
X152961600Y-81732300D01*
X152961600Y-81732300D02*
X152961600Y-80560000D01*
X152961600Y-80560000D02*
X148628000Y-76226400D01*
X148628000Y-76226400D02*
X148628000Y-73637600D01*
X145628000Y-75212900D02*
X145804400Y-75212900D01*
X145804400Y-75212900D02*
X151786000Y-81194500D01*
X145628000Y-73637600D02*
X145628000Y-75212900D01*
X152152000Y-81958400D02*
X152511300Y-81599100D01*
X152511300Y-81599100D02*
X152511300Y-80746600D01*
X152511300Y-80746600D02*
X147128000Y-75363300D01*
X147128000Y-75363300D02*
X147128000Y-75212900D01*
X147128000Y-73637600D02*
X147128000Y-75212900D01*
X152152000Y-83183700D02*
X152152000Y-81958400D01*
M02*
