M48
INCH
T1C0.0157
T2C0.0300
T3C0.0315
T4C0.0354
%
G90
G05
T1
X5.9758Y-3.1966
X6.0684Y-3.1845
X6.1078Y-3.174
X6.1164Y-3.4118
X6.1396Y-3.4679
X6.1892Y-3.5518
X6.2846Y-3.2252
X6.3064Y-3.6631
X6.5278Y-3.1691
X6.6116Y-3.0809
X6.6322Y-3.1496
X7.1691Y-3.6973
X7.255Y-3.5482
X7.4211Y-3.0114
T2
X5.581Y-3.6082
X5.581Y-4.2082
X5.681Y-3.6082
X5.681Y-4.2082
X5.781Y-3.6082
X5.781Y-4.2082
X5.881Y-3.6082
X5.881Y-4.2082
X5.981Y-3.6082
X5.981Y-4.2082
X6.081Y-3.6082
X6.081Y-4.2082
X6.181Y-3.6082
X6.181Y-4.2082
X6.281Y-3.6082
X6.281Y-4.2082
X6.381Y-3.6082
X6.381Y-4.2082
X6.481Y-3.6082
X6.481Y-4.2082
X6.581Y-3.6082
X6.581Y-4.2082
X6.681Y-3.6082
X6.681Y-4.2082
X6.781Y-3.6082
X6.781Y-4.2082
X6.881Y-3.6082
X6.881Y-4.2082
X6.981Y-3.6082
X6.981Y-4.2082
X7.081Y-3.6082
X7.081Y-4.2082
X7.181Y-3.6082
X7.181Y-4.2082
X7.281Y-3.6082
X7.281Y-4.2082
X7.381Y-3.6082
X7.381Y-4.2082
X7.481Y-3.6082
X7.481Y-4.2082
T3
X6.4233Y-3.0718
X6.4233Y-3.4718
X7.2107Y-3.0718
X7.2107Y-3.4718
T4
X5.9902Y-3.2749
X6.0902Y-3.2749
X6.7776Y-3.2749
X6.8776Y-3.2749
T0
M30
