G04 #@! TF.GenerationSoftware,KiCad,Pcbnew,(5.1.2)-2*
G04 #@! TF.CreationDate,2020-01-23T10:25:16+01:00*
G04 #@! TF.ProjectId,JoeyJoebags,4a6f6579-4a6f-4656-9261-67732e6b6963,rev?*
G04 #@! TF.SameCoordinates,Original*
G04 #@! TF.FileFunction,Copper,L2,Bot*
G04 #@! TF.FilePolarity,Positive*
%FSLAX46Y46*%
G04 Gerber Fmt 4.6, Leading zero omitted, Abs format (unit mm)*
G04 Created by KiCad (PCBNEW (5.1.2)-2) date 2020-01-23 10:25:16*
%MOMM*%
%LPD*%
G04 APERTURE LIST*
%ADD10R,1.524000X1.524000*%
%ADD11C,1.524000*%
%ADD12R,1.800000X1.800000*%
%ADD13C,1.800000*%
%ADD14O,1.600000X1.600000*%
%ADD15C,1.600000*%
%ADD16C,0.800000*%
%ADD17C,0.250000*%
G04 APERTURE END LIST*
D10*
X190017000Y-106888000D03*
D11*
X187477000Y-106888000D03*
X184937000Y-106888000D03*
X182397000Y-106888000D03*
X179857000Y-106888000D03*
X177317000Y-106888000D03*
X174777000Y-106888000D03*
X172237000Y-106888000D03*
X169697000Y-106888000D03*
X167157000Y-106888000D03*
X164617000Y-106888000D03*
X162077000Y-106888000D03*
X159537000Y-106888000D03*
X156997000Y-106888000D03*
X154457000Y-106888000D03*
X151917000Y-106888000D03*
X149377000Y-106888000D03*
X146837000Y-106888000D03*
X144297000Y-106888000D03*
X141757000Y-106888000D03*
X141757000Y-91648000D03*
X144297000Y-91648000D03*
X146837000Y-91648000D03*
X149377000Y-91648000D03*
X151917000Y-91648000D03*
X154457000Y-91648000D03*
X156997000Y-91648000D03*
X159537000Y-91648000D03*
X162077000Y-91648000D03*
X164617000Y-91648000D03*
X167157000Y-91648000D03*
X169697000Y-91648000D03*
X172237000Y-91648000D03*
X174777000Y-91648000D03*
X177317000Y-91648000D03*
X179857000Y-91648000D03*
X182397000Y-91648000D03*
X184937000Y-91648000D03*
X187477000Y-91648000D03*
X190017000Y-91648000D03*
D12*
X172152000Y-83183700D03*
D13*
X174692000Y-83183700D03*
X154692000Y-83183700D03*
D12*
X152152000Y-83183700D03*
D14*
X183152000Y-78023700D03*
D15*
X183152000Y-88183700D03*
X163152000Y-88183700D03*
D14*
X163152000Y-78023700D03*
D16*
X168457200Y-79999100D03*
X165805800Y-80495200D03*
X160183200Y-93041500D03*
X159629400Y-81919800D03*
X184277300Y-90123100D03*
X182095600Y-93910900D03*
X167933400Y-78253900D03*
X188497100Y-76488400D03*
X157204600Y-90215400D03*
X155945400Y-88083400D03*
X155357400Y-86658600D03*
X154137300Y-80886500D03*
X155137700Y-80618900D03*
X151786000Y-81194500D03*
D17*
X182397000Y-106888000D02*
X188613700Y-100671300D01*
X188613700Y-100671300D02*
X188613700Y-91176900D01*
X188613700Y-91176900D02*
X177435900Y-79999100D01*
X177435900Y-79999100D02*
X168457200Y-79999100D01*
X165805800Y-80495200D02*
X166204500Y-80893900D01*
X166204500Y-80893900D02*
X177472500Y-80893900D01*
X177472500Y-80893900D02*
X186061000Y-89482400D01*
X186061000Y-89482400D02*
X186061000Y-100684000D01*
X186061000Y-100684000D02*
X179857000Y-106888000D01*
X177317000Y-106888000D02*
X176229600Y-107975400D01*
X176229600Y-107975400D02*
X164122200Y-107975400D01*
X164122200Y-107975400D02*
X163164400Y-107017600D01*
X163164400Y-107017600D02*
X163164400Y-96022700D01*
X163164400Y-96022700D02*
X160183200Y-93041500D01*
X174777000Y-106888000D02*
X175864400Y-105800600D01*
X175864400Y-105800600D02*
X177824400Y-105800600D01*
X177824400Y-105800600D02*
X178404400Y-106380600D01*
X178404400Y-106380600D02*
X178404400Y-107347300D01*
X178404400Y-107347300D02*
X177300900Y-108450800D01*
X177300900Y-108450800D02*
X162053800Y-108450800D01*
X162053800Y-108450800D02*
X160624400Y-107021400D01*
X160624400Y-107021400D02*
X160624400Y-106251200D01*
X160624400Y-106251200D02*
X150782900Y-96409700D01*
X150782900Y-96409700D02*
X150782900Y-82276900D01*
X150782900Y-82276900D02*
X151140000Y-81919800D01*
X151140000Y-81919800D02*
X159629400Y-81919800D01*
X167157000Y-106888000D02*
X168732000Y-105313000D01*
X168732000Y-105313000D02*
X171727000Y-105313000D01*
X171727000Y-105313000D02*
X183484600Y-93555400D01*
X183484600Y-93555400D02*
X183484600Y-90915800D01*
X183484600Y-90915800D02*
X184277300Y-90123100D01*
X182095600Y-93910900D02*
X177594100Y-93910900D01*
X177594100Y-93910900D02*
X164617000Y-106888000D01*
X141757000Y-106888000D02*
X145749600Y-102895400D01*
X145749600Y-102895400D02*
X145749600Y-85513500D01*
X145749600Y-85513500D02*
X152291900Y-78971200D01*
X152291900Y-78971200D02*
X162110500Y-78971200D01*
X162110500Y-78971200D02*
X162317500Y-79178200D01*
X162317500Y-79178200D02*
X167009100Y-79178200D01*
X167009100Y-79178200D02*
X167933400Y-78253900D01*
X182026700Y-78023700D02*
X181531600Y-77528600D01*
X181531600Y-77528600D02*
X164772400Y-77528600D01*
X164772400Y-77528600D02*
X164277300Y-78023700D01*
X163152000Y-78023700D02*
X164277300Y-78023700D01*
X163152000Y-78023700D02*
X152587900Y-78023700D01*
X152587900Y-78023700D02*
X145299200Y-85312400D01*
X145299200Y-85312400D02*
X145299200Y-88105800D01*
X145299200Y-88105800D02*
X141757000Y-91648000D01*
X183152000Y-78023700D02*
X182026700Y-78023700D01*
X188497100Y-76488400D02*
X185800500Y-79185000D01*
X185800500Y-79185000D02*
X168235800Y-79185000D01*
X168235800Y-79185000D02*
X167788900Y-79631900D01*
X167788900Y-79631900D02*
X162134300Y-79631900D01*
X162134300Y-79631900D02*
X161926300Y-79423900D01*
X161926300Y-79423900D02*
X152530600Y-79423900D01*
X152530600Y-79423900D02*
X146837000Y-85117500D01*
X146837000Y-85117500D02*
X146837000Y-91648000D01*
X159537000Y-91648000D02*
X158637200Y-91648000D01*
X158637200Y-91648000D02*
X157204600Y-90215400D01*
X164617000Y-91648000D02*
X163397600Y-90428600D01*
X163397600Y-90428600D02*
X158496200Y-90428600D01*
X158496200Y-90428600D02*
X156151000Y-88083400D01*
X156151000Y-88083400D02*
X155945400Y-88083400D01*
X155357400Y-86658600D02*
X155571300Y-86658600D01*
X155571300Y-86658600D02*
X158891000Y-89978300D01*
X158891000Y-89978300D02*
X165487300Y-89978300D01*
X165487300Y-89978300D02*
X167157000Y-91648000D01*
X169697000Y-91648000D02*
X169697000Y-90933900D01*
X169697000Y-90933900D02*
X159917800Y-81154700D01*
X159917800Y-81154700D02*
X155627700Y-81154700D01*
X155627700Y-81154700D02*
X155438200Y-81344200D01*
X155438200Y-81344200D02*
X154595000Y-81344200D01*
X154595000Y-81344200D02*
X154137300Y-80886500D01*
X172237000Y-91648000D02*
X161207900Y-80618900D01*
X161207900Y-80618900D02*
X155137700Y-80618900D01*
X151786000Y-81194500D02*
X153095300Y-79885200D01*
X153095300Y-79885200D02*
X161525700Y-79885200D01*
X161525700Y-79885200D02*
X165436800Y-83796300D01*
X165436800Y-83796300D02*
X172152000Y-83796300D01*
X172152000Y-83796300D02*
X172152000Y-84409000D01*
X172152000Y-83183700D02*
X172152000Y-83796300D01*
X172152000Y-84409000D02*
X172618000Y-84409000D01*
X172618000Y-84409000D02*
X179857000Y-91648000D01*
X182397000Y-91648000D02*
X181307000Y-92738000D01*
X181307000Y-92738000D02*
X169196700Y-92738000D01*
X169196700Y-92738000D02*
X168427000Y-91968300D01*
X168427000Y-91968300D02*
X168427000Y-91367900D01*
X168427000Y-91367900D02*
X166587000Y-89527900D01*
X166587000Y-89527900D02*
X159285700Y-89527900D01*
X159285700Y-89527900D02*
X153377300Y-83619500D01*
X153377300Y-83619500D02*
X153377300Y-83183700D01*
X152152000Y-83183700D02*
X153377300Y-83183700D01*
X183152000Y-88183700D02*
X179692000Y-88183700D01*
X179692000Y-88183700D02*
X174692000Y-83183700D01*
X163152000Y-88183700D02*
X159692000Y-88183700D01*
X159692000Y-88183700D02*
X154692000Y-83183700D01*
M02*
